<svg fill="none" xmlns="http://www.w3.org/2000/svg" viewBox="0 0 20 20" class="design-iconfont">
  <path d="M9.1665 14.9998H10.8332V13.3332H9.1665V14.9998ZM9.99984 1.6665C5.39984 1.6665 1.6665 5.39984 1.6665 9.99984C1.6665 14.5998 5.39984 18.3332 9.99984 18.3332C14.5998 18.3332 18.3332 14.5998 18.3332 9.99984C18.3332 5.39984 14.5998 1.6665 9.99984 1.6665ZM9.99984 16.6665C6.32484 16.6665 3.33317 13.6748 3.33317 9.99984C3.33317 6.32484 6.32484 3.33317 9.99984 3.33317C13.6748 3.33317 16.6665 6.32484 16.6665 9.99984C16.6665 13.6748 13.6748 16.6665 9.99984 16.6665ZM9.99984 4.99984C8.15817 4.99984 6.6665 6.4915 6.6665 8.33317H8.33317C8.33317 7.4165 9.08317 6.6665 9.99984 6.6665C10.9165 6.6665 11.6665 7.4165 11.6665 8.33317C11.6665 9.99984 9.1665 9.7915 9.1665 12.4998H10.8332C10.8332 10.6248 13.3332 10.4165 13.3332 8.33317C13.3332 6.4915 11.8415 4.99984 9.99984 4.99984Z" fill="currentColor"/>
</svg>
